# AST/ASF file generated using VICON BodyLanguage
# -----------------------------------------------
:version 1.10
:name VICON
:units
  mass 1.0
  length 0.45
  angle deg
:documentation
   .ast/.asf automatically generated from VICON data using
   VICON BodyBuilder and BodyLanguage model FoxedUp or BRILLIANT.MOD
:root
   order TX TY TZ RX RY RZ
   axis XYZ
   position 0 0 0  
   orientation 0 0 0 
:bonedata
  begin
     id 1 
     name lhipjoint
     direction 0.578396 -0.714046 0.394458 
     length 2.21935 
     axis 0 0 0  XYZ
  end
  begin
     id 2 
     name lfemur
     direction 0.34202 -0.939693 0  
     length 6.39105  
     axis 0 0 20  XYZ
    dof rx ry rz
    limits (-160.0 20.0)
           (-70.0 70.0)
           (-60.0 70.0)
  end
  begin
     id 3 
     name ltibia
     direction 0.34202 -0.939693 0   
     length 6.99037   
     axis 0 0 20   XYZ
    dof rx
    limits (-10.0 170.0)
  end
  begin
     id 4 
     name lfoot
     direction 0.0582372 -0.160005 0.985397   
     length 2.06111   
     axis -90 7.62852e-016 20   XYZ
    dof rx rz
    limits (-45.0 90.0)
           (-70.0 20.0)
  end
  begin
     id 5 
     name ltoes
     direction 1.53556e-011 -4.21875e-011 1   
     length 1.04074   
     axis -90 7.62852e-016 20   XYZ
    dof rx
    limits (-90.0 20.0)
  end
  begin
     id 6 
     name rhipjoint
     direction -0.558179 -0.726269 0.40121   
     length 2.182  
     axis 0 0 0  XYZ 
  end
  begin
     id 7 
     name rfemur
     direction -0.34202 -0.939693 0   
     length 6.51172   
     axis 0 0 -20   XYZ
    dof rx ry rz
    limits (-160.0 20.0)
           (-70.0 70.0)
           (-70.0 60.0)
  end
  begin
     id 8 
     name rtibia
     direction -0.34202 -0.939693 0   
     length 7.02607   
     axis 0 0 -20   XYZ
    dof rx
    limits (-10.0 170.0)
 end
 begin
     id 9 
     name rfoot
     direction -0.0788856 -0.216737 0.973038   
     length 1.96734  
     axis -90 -7.62852e-016 -20   XYZ
    dof rx rz
    limits (-45.0 90.0)
           (-20.0 70.0)
  end
  begin
     id 10 
     name rtoes
     direction -1.53567e-011 -4.21783e-011 1   
     length 0.990825   
     axis -90 -7.62852e-016 -20   XYZ
    dof rx
    limits (-90.0 20.0)
  end
  begin
     id 11 
     name lowerback
     direction 0.00668177 0.999323 -0.0361741   
     length 1.7655   
     axis 0 0 0   XYZ
    dof rx ry rz
    limits (-20.0 45.0)
           (-30.0 30.0)
           (-30.0 30.0)
  end
  begin
     id 12 
     name upperback
     direction -0.00222086 0.99851 0.0545167   
     length 1.74912   
     axis 0 0 0   XYZ
    dof rx ry rz
    limits (-20.0 45.0)
           (-30.0 30.0)
           (-30.0 30.0)
  end
  begin
     id 13 
     name thorax
     direction -0.00733971 0.997496 0.0703443   
     length 1.75715   
     axis 0 0 0   XYZ
    dof rx ry rz
    limits (-20.0 45.0)
           (-30.0 30.0)
           (-30.0 30.0)
  end
  begin
     id 14 
     name lowerneck
     direction 0.0279797 0.994795 0.0979765   
     length 1.46939   
     axis 0 0 0   XYZ
    dof rx ry rz
    limits (-20.0 45.0)
           (-30.0 30.0)
           (-30.0 30.0)
  end
  begin
     id 15 
     name upperneck
     direction 0.00339187 0.976776 -0.214238   
     length 1.48018   
     axis 0 0 0   XYZ
    dof rx ry rz
    limits (-20.0 45.0)
           (-30.0 30.0)
           (-30.0 30.0)
  end
  begin
     id 16
     name head
     direction -0.00263506 0.996603 -0.0823096  
     length 1.4976  
     axis 0 0 0   XYZ
    dof rx ry rz
    limits (-20.0 45.0)
           (-30.0 30.0)
           (-30.0 30.0)
  end
  begin
     id 17 
     name lclavicle
     direction 0.894044 0.44508 -0.0508781  
     length 3.03024  
     axis 0 0 0   XYZ
    dof ry rz
    limits (-20.0 10.0)
           (0.0 20.0)
  end
  begin
     id 18 
     name lhumerus
     direction 1 -4.48961e-011 -2.39475e-018   
     length 4.4661   
     axis 180 -30 -90   XYZ
    dof rx ry rz
    limits (-60.0 90.0)
           (-90.0 90.0)
           (-90.0 90.0)
  end
  begin
     id 19
     name lradius
     direction 1 -4.48961e-011 9.29328e-028   
     length 3.41414   
     axis 180 -30 -90   XYZ
    dof rx
    limits (-10.0 170.0)
  end
  begin
     id 20
     name lwrist
     direction 1 -4.48985e-011 1.53461e-026   
     length 1.70707   
     axis -1.09697e-014 90 90   XYZ
    dof ry
    limits (-180.0 0.0)
 end
  begin
     id 21 
     name lhand
     direction 1 -4.48966e-011 3.06923e-026   
     length 0.328298   
     axis -1.95843e-014 90 90   XYZ
    dof rx rz
    limits (-90.0 90.0)
           (-45.0 45.0)
  end
  begin
     id 22 
     name lfingers
     direction 1 -4.48893e-011 6.13845e-026   
     length 0.264682   
     axis -3.91686e-014 90 90   XYZ
    dof rx
    limits (0.0 90.0)
  end
  begin
     id 23
     name lthumb
     direction 0.707107 -6.34876e-011 0.707107   
     length 0.380032   
     axis -90 45 2.85299e-015   XYZ
    dof rx rz
    limits (-45.0 45.0)
           (-45.0 45.0)
  end
  begin
     id 24 
     name rclavicle
     direction -0.936955 0.347862 -0.0332887   
     length 3.26927  
     axis 0 0 0   XYZ 
    dof ry rz
    limits (-10.0 20.0)
           (-20.0 0.0)
  end
  begin
     id 25 
     name rhumerus
     direction -1 -4.4896e-011 1.78637e-018  
     length 4.40431   
     axis 180 30 90   XYZ
    dof rx ry rz
    limits (-90.0 60.0)
           (-90.0 90.0)
           (-90.0 90.0)
  end
  begin
     id 26 
     name rradius
     direction -1 -4.48955e-011 9.34036e-027   
     length 3.04688   
     axis 180 30 90   XYZ
    dof rx
    limits (-10.0 170.0)
  end
  begin
     id 27 
     name rwrist
     direction -1 -4.49011e-011 1.53461e-026   
     length 1.52344   
     axis -1.09697e-014 -90 -90   XYZ
    dof ry
    limits (-180.0 0.0)
  end
  begin
     id 28
     name rhand
     direction -1 -4.48834e-011 3.06923e-026   
     length 0.500489   
     axis -1.95843e-014 -90 -90   XYZ
    dof rx rz
    limits (-90.0 90.0)
           (-45.0 45.0)
  end
  begin
     id 29
     name rfingers
     direction -1 -4.48967e-011 6.13845e-026   
     length 0.403507   
     axis -3.91686e-014 -90 -90   XYZ
    dof rx
    limits (0.0 90.0)
  end
  begin
     id 30
     name rthumb
     direction -0.707107 -6.34826e-011 0.707107   
     length 0.579358   
     axis -90 -45 -2.85299e-015   XYZ
    dof rx rz
    limits (-45.0 45.0)
           (-45.0 45.0)
  end
:hierarchy
  begin
    root lhipjoint rhipjoint lowerback
    lhipjoint lfemur
    lfemur ltibia
    ltibia lfoot
    lfoot ltoes
    rhipjoint rfemur
    rfemur rtibia
    rtibia rfoot
    rfoot rtoes
    lowerback upperback
    upperback thorax
    thorax lowerneck lclavicle rclavicle
    lowerneck upperneck
    upperneck head
    lclavicle lhumerus
    lhumerus lradius
    lradius lwrist
    lwrist lhand lthumb
    lhand lfingers
    rclavicle rhumerus
    rhumerus rradius
    rradius rwrist
    rwrist rhand rthumb
    rhand rfingers
  end

#!OML:ASF H:\IndianDance\Patient Classification 1\Patient 1\Session 1\dancer.ASF
:FULLY-SPECIFIED
:DEGREES
1988
root 7.23102 15.0226 0.762156 -174.254 -17.1118 -172.779
lowerback 5.54403 0.235143 -0.149246
upperback -5.10309 -0.0164864 10.6824
thorax -8.64208 -0.0463611 11.9246
lowerneck -18.0425 -4.14251 0.0898819
upperneck 26.5131 -4.77293 -8.45341
head 11.4037 -3.69586 -3.93869
rclavicle -1.34335e-014 6.04305e-014
rhumerus -13.3575 7.73522 -73.2791
rradius 43.9137
rwrist -43.1794
rhand -50.4245 25.5512
rfingers 7.12502
rthumb -22.9965 -3.09696
lclavicle -1.34335e-014 6.04305e-014
lhumerus -63.7212 -60.0943 108.001
lradius 97.8074
lwrist 80.224
lhand 24.9748 373.555
lfingers 7.12502
lthumb 49.138 35.2186
rfemur -27.2342 -26.0495 31.4106
rtibia 46.572
rfoot -23.8771 -10.4336
rtoes 0.441474
lfemur -51.2507 31.853 -16.2552
ltibia 49.0253
lfoot -28.15 23.7677
ltoes 1.0667
1989
root 7.20019 15.052 0.740593 -174.213 -17.3059 -172.828
lowerback 5.30447 0.24039 -0.158852
upperback -5.109 -0.0387818 10.7961
thorax -8.50536 -0.0666483 12.0572
lowerneck -18.0485 -4.12088 0.134382
upperneck 26.618 -4.75772 -8.47377
head 11.4436 -3.69253 -3.95876
rclavicle -1.24613e-014 -4.13472e-014
rhumerus -14.0402 9.69639 -73.6199
rradius 45.0099
rwrist -45.7505
rhand -50.5461 23.847
rfingers 7.12502
rthumb -23.1131 -4.78665
lclavicle -1.24613e-014 -4.13472e-014
lhumerus -64.1446 -60.0844 108.529
lradius 97.8325
lwrist 80.282
lhand 24.9022 373.682
lfingers 7.12502
lthumb 49.0714 35.3786
rfemur -26.8737 -25.9096 31.1672
rtibia 46.1238
rfoot -23.5659 -10.4961
rtoes 0.180472
lfemur -49.7012 31.0413 -16.2447
ltibia 46.014
lfoot -28.3429 24.7796
ltoes 0.904079
1990
root 7.1678 15.0795 0.719696 -174.176 -17.487 -172.893
lowerback 5.08328 0.24795 -0.174458
upperback -5.11863 -0.055399 10.8936
thorax -8.38456 -0.0825199 12.1749
lowerneck -18.0427 -4.10763 0.152569
upperneck 26.7241 -4.75704 -8.45666
head 11.4828 -3.69321 -3.96218
rclavicle 1.2834e-014 -1.90833e-014
rhumerus -14.7401 11.655 -73.9568
rradius 46.1526
rwrist -48.3573
rhand -50.6651 22.1984
rfingers 7.12502
rthumb -23.2273 -6.42083
lclavicle 1.2834e-014 -1.90833e-014
lhumerus -64.5694 -60.0818 109.045
lradius 97.8647
lwrist 80.3293
lhand 24.8371 373.784
lfingers 7.12502
lthumb 49.0115 35.5102
rfemur -26.5398 -25.7463 30.8869
rtibia 45.7579
rfoot -23.2515 -10.5019
rtoes -0.0511159
lfemur -48.1303 30.1941 -16.2102
ltibia 43.1434
lfoot -28.4261 25.6191
ltoes 0.777143
1991
root 7.13492 15.106 0.700525 -174.151 -17.6545 -172.953
lowerback 4.89796 0.258867 -0.183325
upperback -5.13141 -0.0636112 10.9812
thorax -8.28996 -0.0932667 12.2781
lowerneck -18.0345 -4.09707 0.161191
upperneck 26.8379 -4.76317 -8.41988
head 11.5251 -3.69544 -3.95805
rclavicle -3.33834e-014 -8.5875e-014
rhumerus -15.4414 13.603 -74.2906
rradius 47.3215
rwrist -50.9446
rhand -50.7665 20.6065
rfingers 7.12502
rthumb -23.3246 -8.0005
lclavicle -3.33834e-014 -8.5875e-014
lhumerus -64.9881 -60.0799 109.539
lradius 97.9047
lwrist 80.3603
lhand 24.7767 373.852
lfingers 7.12502
lthumb 48.9561 35.6063
rfemur -26.2328 -25.5408 30.5925
rtibia 45.4777
rfoot -22.9225 -10.4443
rtoes -0.305345
lfemur -46.6169 29.3275 -16.1296
ltibia 40.5509
lfoot -28.4134 26.3113
ltoes 0.68656
1992
root 7.10264 15.1319 0.684248 -174.144 -17.8051 -172.994
lowerback 4.77431 0.276152 -0.181385
upperback -5.14836 -0.0577952 11.0635
thorax -8.23928 -0.0956407 12.3708
lowerneck -18.0245 -4.08586 0.176811
upperneck 26.954 -4.77141 -8.38096
head 11.5677 -3.69765 -3.95465
rclavicle 3.73591e-014 -2.54444e-014
rhumerus -16.13 15.5305 -74.6248
rradius 48.4955
rwrist -53.4662
rhand -50.8415 19.0718
rfingers 7.12502
rthumb -23.3966 -9.52598
lclavicle 3.73591e-014 -2.54444e-014
lhumerus -65.3937 -60.0733 110.004
lradius 97.9496
lwrist 80.3811
lhand 24.7378 373.909
lfingers 7.12502
lthumb 48.9203 35.6805
rfemur -25.9561 -25.2777 30.3003
rtibia 45.2856
rfoot -22.5504 -10.3274
rtoes -0.696874
lfemur -45.2384 28.4712 -15.9947
ltibia 38.3492
lfoot -28.3586 26.8875
ltoes 0.723837
1993
root 7.07229 15.1577 0.671747 -174.159 -17.9342 -173.007
lowerback 4.72689 0.299572 -0.169683
upperback -5.16488 -0.0375301 11.1423
thorax -8.23619 -0.0891406 12.4563
lowerneck -18.0301 -4.06596 0.224792
upperneck 27.0776 -4.77176 -8.35856
head 11.6152 -3.69526 -3.96279
rclavicle -4.09124e-014 3.18055e-015
rhumerus -16.7864 17.4322 -74.9708
rradius 49.6576
rwrist -55.8954
rhand -50.8829 17.5642
rfingers 7.12502
rthumb -23.4363 -11.0286
lclavicle -4.09124e-014 3.18055e-015
lhumerus -65.768 -60.0542 110.414
lradius 97.9986
lwrist 80.3942
lhand 24.7005 373.945
lfingers 7.12502
lthumb 48.886 35.7334
rfemur -25.7139 -24.9314 30.0213
rtibia 45.1877
rfoot -22.1377 -10.129
rtoes -1.17231
lfemur -44.0574 27.673 -15.8124
ltibia 36.6003
lfoot -28.3408 27.339
ltoes 1.00306
1994
root 7.04479 15.1832 0.663519 -174.195 -18.0457 -172.987
lowerback 4.75893 0.328772 -0.148838
upperback -5.17578 -0.0024909 11.2141
thorax -8.27688 -0.0735065 12.5304
lowerneck -18.0603 -4.03717 0.323621
upperneck 27.2038 -4.76606 -8.36011
head 11.6665 -3.68761 -3.98859
rclavicle -3.35076e-014 -1.59028e-014
rhumerus -17.4004 19.3102 -75.3394
rradius 50.809
rwrist -58.2454
rhand -50.8965 16.0774
rfingers 7.12502
rthumb -23.4493 -12.5137
lclavicle -3.35076e-014 -1.59028e-014
lhumerus -66.0921 -60.0269 110.736
lradius 98.0514
lwrist 80.4042
lhand 24.6712 373.958
lfingers 7.12502
lthumb 48.8591 35.7594
rfemur -25.5203 -24.4989 29.7609
rtibia 45.2002
rfoot -21.7019 -9.83189
rtoes -1.71135
lfemur -43.1095 26.9665 -15.5963
ltibia 35.3044
lfoot -28.4111 27.6587
ltoes 1.53229
1995
root 7.02071 15.2076 0.659331 -174.234 -18.1412 -172.957
lowerback 4.85546 0.359858 -0.140539
upperback -5.17763 0.0408588 11.2721
thorax -8.34747 -0.0506105 12.5974
lowerneck -18.1221 -3.99863 0.476198
upperneck 27.3256 -4.75398 -8.37991
head 11.7204 -3.67281 -4.03019
rclavicle -7.65197e-014 5.725e-014
rhumerus -17.9637 21.1548 -75.7428
rradius 51.954
rwrist -60.5313
rhand -50.8989 14.6034
rfingers 7.12502
rthumb -23.4517 -13.9874
lclavicle -7.65197e-014 5.725e-014
lhumerus -66.3571 -59.9845 110.951
lradius 98.115
lwrist 80.4069
lhand 24.6347 373.935
lfingers 7.12502
lthumb 48.8255 35.7529
rfemur -25.4054 -23.9911 29.5076
rtibia 45.3447
rfoot -21.2467 -9.43789
rtoes -2.40756
lfemur -42.4002 26.3688 -15.3824
ltibia 34.399
lfoot -28.5513 27.8808
ltoes 2.16894
1996
root 7.00052 15.2297 0.65849 -174.258 -18.2256 -172.942
lowerback 4.98887 0.39427 -0.170286
upperback -5.16771 0.0926301 11.3055
thorax -8.42879 -0.0188677 12.6578
lowerneck -18.2205 -3.9583 0.660649
upperneck 27.4387 -4.74645 -8.39065
head 11.7774 -3.65352 -4.07513
rclavicle 7.63954e-014 -7.63333e-014
rhumerus -18.4878 22.9579 -76.1787
rradius 53.116
rwrist -62.798
rhand -50.9043 13.1704
rfingers 7.12502
rthumb -23.4568 -15.4197
lclavicle 7.63954e-014 -7.63333e-014
lhumerus -66.5542 -59.9478 111.045
lradius 98.1932
lwrist 80.4121
lhand 24.6059 373.896
lfingers 7.12502
lthumb 48.7991 35.7272
rfemur -25.3954 -23.425 29.238
rtibia 45.6383
rfoot -20.8229 -8.88579
rtoes -3.02638
lfemur -41.904 25.8914 -15.2179
ltibia 33.7755
lfoot -28.7624 28.0051
ltoes 2.89562
1997
root 6.98422 15.2484 0.660017 -174.247 -18.3086 -172.973
lowerback 5.13266 0.429405 -0.261265
upperback -5.14588 0.147257 11.3046
thorax -8.50387 0.0203712 12.713
lowerneck -18.3456 -3.92788 0.834073
upperneck 27.5292 -4.75876 -8.34723
head 11.8318 -3.634 -4.10003
rclavicle 6.71768e-014 8.5875e-014
rhumerus -18.9861 24.7068 -76.6474
rradius 54.3135
rwrist -65.0631
rhand -50.9192 11.7924
rfingers 7.12502
rthumb -23.4711 -16.7959
lclavicle 6.71768e-014 8.5875e-014
lhumerus -66.6859 -59.9251 111.018
lradius 98.2887
lwrist 80.4204
lhand 24.5778 373.831
lfingers 7.12502
lthumb 48.7733 35.6746
rfemur -25.5068 -22.8315 28.9296
rtibia 46.0835
rfoot -20.4596 -8.16197
rtoes -3.57131
lfemur -41.5809 25.5331 -15.1519
ltibia 33.3197
lfoot -28.9354 28.1515
ltoes 3.33673
1998
root 6.97162 15.263 0.662841 -174.19 -18.4032 -173.074
lowerback 5.2636 0.463436 -0.429431
upperback -5.11501 0.200264 11.2631
thorax -8.5613 0.0658053 12.7644
lowerneck -18.4828 -3.9155 0.969081
upperneck 27.5878 -4.80011 -8.23001
head 11.8781 -3.61827 -4.0929
rclavicle 2.3792e-015 1.59028e-014
rhumerus -19.4779 26.3948 -77.1416
rradius 55.5598
rwrist -67.3275
rhand -50.9474 10.5101
rfingers 7.12502
rthumb -23.4982 -18.0748
lclavicle 2.3792e-015 1.59028e-014
lhumerus -66.7608 -59.9304 110.881
lradius 98.4074
lwrist 80.4407
lhand 24.5653 373.76
lfingers 7.12502
lthumb 48.7618 35.6098
rfemur -25.7386 -22.2539 28.5665
rtibia 46.6577
rfoot -20.1914 -7.24616
rtoes -4.03177
lfemur -41.3821 25.2546 -15.2057
ltibia 32.9401
lfoot -29.0091 28.3263
ltoes 3.47711
1999
root 6.9625 15.2735 0.666106 -174.085 -18.522 -173.254
lowerback 5.36787 0.495676 -0.677327
upperback -5.0776 0.249554 11.1787
thorax -8.5952 0.116268 12.8105
lowerneck -18.6217 -3.929 1.04584
upperneck 27.608 -4.87788 -8.03271
head 11.9121 -3.61092 -4.04825
rclavicle 9.44227e-016 2.54444e-014
rhumerus -19.9833 28.0207 -77.6476
rradius 56.8664
rwrist -69.5636
rhand -50.9765 9.33829
rfingers 7.12502
rthumb -23.5261 -19.243
lclavicle 9.44227e-016 2.54444e-014
lhumerus -66.7932 -59.9788 110.654
lradius 98.5555
lwrist 80.4769
lhand 24.5743 373.692
lfingers 7.12502
lthumb 48.77 35.5377
rfemur -26.069 -21.7326 28.1446
rtibia 47.3117
rfoot -20.0383 -6.12661
rtoes -4.40398
lfemur -41.2744 25.0668 -15.4107
ltibia 32.589
lfoot -28.939 28.5411
ltoes 3.22567
2000
root 6.95685 15.28 0.66943 -173.939 -18.683 -173.507
lowerback 5.45217 0.524242 -0.996753
upperback -5.04179 0.292591 11.0567
thorax -8.6181 0.170137 12.8545
lowerneck -18.7425 -3.97191 1.04936
upperneck 27.5857 -4.99285 -7.75971
head 11.9288 -3.61508 -3.96452
rclavicle -6.7711e-015 -3.81667e-014
rhumerus -20.5197 29.5892 -78.1554
rradius 58.2284
rwrist -71.7169
rhand -50.9881 8.29042
rfingers 7.12502
rthumb -23.5372 -20.2894
lclavicle -6.7711e-015 -3.81667e-014
lhumerus -66.7982 -60.0735 110.369
lradius 98.7255
lwrist 80.5323
lhand 24.5795 373.618
lfingers 7.12502
lthumb 48.7748 35.4609
rfemur -26.4603 -21.2985 27.681
rtibia 47.9766
rfoot -19.9932 -4.84711
rtoes -4.69908
lfemur -41.2387 24.975 -15.7775
ltibia 32.2536
lfoot -28.8093 28.7267
ltoes 2.83713
2001
root 6.95447 15.2838 0.672577 -173.771 -18.8993 -173.804
lowerback 5.525 0.545934 -1.3533
upperback -5.01021 0.326009 10.9066
thorax -8.63674 0.222821 12.8882
lowerneck -18.8423 -4.03746 1.00106
upperneck 27.5285 -5.13414 -7.44393
head 11.9298 -3.62911 -3.85689
rclavicle 1.83876e-014 -8.5875e-014
rhumerus -21.0883 31.1092 -78.6635
rradius 59.6329
rwrist -73.7264
rhand -50.957 7.34783
rfingers 7.12502
rthumb -23.5073 -21.2358
lclavicle 1.83876e-014 -8.5875e-014
lhumerus -66.7774 -60.2181 110.035
lradius 98.9139
lwrist 80.6067
lhand 24.5993 373.534
lfingers 7.12502
lthumb 48.7931 35.3677
rfemur -26.8578 -20.9642 27.2124
rtibia 48.5758
rfoot -20.0406 -3.50476
rtoes -4.82125
lfemur -41.2649 24.9712 -16.2709
ltibia 31.9495
lfoot -28.6773 28.8542
ltoes 2.42625
2002
root 6.95508 15.2852 0.675489 -173.601 -19.1799 -174.1
lowerback 5.59853 0.559944 -1.70507
upperback -4.98818 0.349627 10.7456
thorax -8.6638 0.270889 12.9078
lowerneck -18.9132 -4.11896 0.916945
upperneck 27.4441 -5.28931 -7.12029
head 11.9159 -3.65166 -3.7399
rclavicle 2.58172e-014 -9.54166e-014
rhumerus -21.6874 32.591 -79.1709
rradius 61.0637
rwrist -75.5396
rhand -50.8667 6.48092
rfingers 7.12502
rthumb -23.4207 -22.1138
lclavicle 2.58172e-014 -9.54166e-014
lhumerus -66.7329 -60.401 109.677
lradius 99.1037
lwrist 80.6886
lhand 24.645 373.455
lfingers 7.12502
lthumb 48.8351 35.2689
rfemur -27.2094 -20.7333 26.7891
rtibia 49.0382
rfoot -20.1498 -2.23272
rtoes -4.78494
lfemur -41.3544 25.0324 -16.8262
ltibia 31.6997
lfoot -28.5607 28.9681
ltoes 1.97618
